<mxfile host="app.diagrams.net" modified="2023-10-05T04:58:28.295Z" agent="Mozilla/5.0 (Windows NT 10.0; Win64; x64) AppleWebKit/537.36 (KHTML, like Gecko) Chrome/116.0.5845.2271 YaBrowser/23.9.0.2271 Yowser/2.5 Safari/537.36" etag="ioX2EiomrdOs2DdO4TfF" version="22.0.2" type="device">
  <diagram name="Страница — 1" id="tPoT4hHvwxfY3_mr3B1R">
    <mxGraphModel dx="1002" dy="575" grid="0" gridSize="10" guides="1" tooltips="1" connect="1" arrows="1" fold="1" page="1" pageScale="1" pageWidth="827" pageHeight="1169" math="0" shadow="0">
      <root>
        <mxCell id="0" />
        <mxCell id="1" parent="0" />
        <mxCell id="6rCbfs4mVRWqjugRPmAf-7" value="&lt;p style=&quot;line-height: 115%;&quot;&gt;&lt;b&gt;Сотрудники, студенты,&amp;nbsp;&lt;/b&gt;&lt;/p&gt;&lt;p style=&quot;line-height: 115%;&quot;&gt;&lt;b&gt;обучающиеся (в зависимости от сегмента)&lt;/b&gt;&lt;/p&gt;" style="shape=umlActor;verticalLabelPosition=bottom;verticalAlign=top;html=1;outlineConnect=0;align=center;" vertex="1" parent="1">
          <mxGeometry x="163" y="208" width="47" height="96" as="geometry" />
        </mxCell>
        <mxCell id="6rCbfs4mVRWqjugRPmAf-11" value="&lt;b&gt;&lt;font style=&quot;font-size: 14px;&quot;&gt;Отслеживание собственного прогресса&lt;/font&gt;&lt;/b&gt;" style="ellipse;whiteSpace=wrap;html=1;" vertex="1" parent="1">
          <mxGeometry x="280" y="151" width="147" height="80" as="geometry" />
        </mxCell>
        <mxCell id="6rCbfs4mVRWqjugRPmAf-13" value="" style="endArrow=none;html=1;rounded=0;exitX=1;exitY=0.3333333333333333;exitDx=0;exitDy=0;exitPerimeter=0;entryX=0;entryY=0.5;entryDx=0;entryDy=0;" edge="1" parent="1" source="6rCbfs4mVRWqjugRPmAf-7" target="6rCbfs4mVRWqjugRPmAf-11">
          <mxGeometry width="50" height="50" relative="1" as="geometry">
            <mxPoint x="435" y="302" as="sourcePoint" />
            <mxPoint x="485" y="252" as="targetPoint" />
          </mxGeometry>
        </mxCell>
        <mxCell id="6rCbfs4mVRWqjugRPmAf-14" value="&lt;b&gt;&lt;font style=&quot;font-size: 14px;&quot;&gt;Получение результатов обучения&lt;/font&gt;&lt;/b&gt;" style="ellipse;whiteSpace=wrap;html=1;" vertex="1" parent="1">
          <mxGeometry x="414" y="279" width="156" height="84" as="geometry" />
        </mxCell>
        <mxCell id="6rCbfs4mVRWqjugRPmAf-16" value="" style="endArrow=none;html=1;rounded=0;exitX=1;exitY=0.3333333333333333;exitDx=0;exitDy=0;exitPerimeter=0;entryX=0;entryY=0.5;entryDx=0;entryDy=0;" edge="1" parent="1" source="6rCbfs4mVRWqjugRPmAf-7" target="6rCbfs4mVRWqjugRPmAf-14">
          <mxGeometry width="50" height="50" relative="1" as="geometry">
            <mxPoint x="146" y="248" as="sourcePoint" />
            <mxPoint x="290" y="201" as="targetPoint" />
          </mxGeometry>
        </mxCell>
        <mxCell id="6rCbfs4mVRWqjugRPmAf-22" value="&lt;font style=&quot;font-size: 14px;&quot;&gt;&lt;b&gt;Предложение дополнительных ресурсов и рекомендаций&amp;nbsp;&lt;/b&gt;&lt;/font&gt;" style="ellipse;whiteSpace=wrap;html=1;" vertex="1" parent="1">
          <mxGeometry x="559" y="101" width="206" height="87" as="geometry" />
        </mxCell>
        <mxCell id="6rCbfs4mVRWqjugRPmAf-23" value="" style="endArrow=none;dashed=1;html=1;dashPattern=1 3;strokeWidth=2;rounded=0;entryX=0;entryY=0.5;entryDx=0;entryDy=0;exitX=0.984;exitY=0.615;exitDx=0;exitDy=0;exitPerimeter=0;" edge="1" parent="1" source="6rCbfs4mVRWqjugRPmAf-11" target="6rCbfs4mVRWqjugRPmAf-22">
          <mxGeometry width="50" height="50" relative="1" as="geometry">
            <mxPoint x="435" y="316" as="sourcePoint" />
            <mxPoint x="485" y="266" as="targetPoint" />
          </mxGeometry>
        </mxCell>
        <mxCell id="6rCbfs4mVRWqjugRPmAf-26" value="&lt;b&gt;&lt;font style=&quot;font-size: 14px;&quot;&gt;расширить&lt;/font&gt;&lt;/b&gt;" style="text;html=1;strokeColor=none;fillColor=none;align=center;verticalAlign=middle;whiteSpace=wrap;rounded=0;" vertex="1" parent="1">
          <mxGeometry x="457" y="129.5" width="60" height="30" as="geometry" />
        </mxCell>
      </root>
    </mxGraphModel>
  </diagram>
</mxfile>
